<svg width="64" height="62" viewBox="0 0 64 62" fill="none" xmlns="http://www.w3.org/2000/svg">
<path d="M19.0424 8.65478L17.6314 8.64736C8.19663 8.59771 0.477887 16.6292 0.425679 26.5502L0.338277 43.1591C0.286069 53.0801 7.91985 61.1924 17.3546 61.2421L38.0668 61.3511C42.1445 61.3725 46.0711 60.0921 49.422 57.6488L51.8374 55.8871L63.4519 55.9482L63.6995 8.88978L52.2351 8.82945L50.5732 6.97154C46.8857 2.84963 41.6831 0.469263 36.2998 0.440934L28.2049 0.398336C23.5718 0.373955 19.7067 3.96891 19.0424 8.65478ZM60.834 53.1662L52.9366 53.1247L53.1551 11.6025L61.0525 11.6441L60.834 53.1662ZM36.2852 3.20908C40.9499 3.23363 45.4591 5.29477 48.6547 8.86874L50.5259 10.9603L50.3013 53.6395L47.9229 55.3738C45.0186 57.4928 41.6142 58.6015 38.0814 58.5829L23.8082 58.5078C25.5285 56.7563 26.6023 54.3093 26.6166 51.6021L26.755 25.3047L24.1225 25.2908L23.9841 51.5882C23.964 55.4027 20.9941 58.493 17.3665 58.4739C9.38491 58.4319 2.92656 51.5687 2.97074 43.173L3.05814 26.5641C3.10231 18.1711 9.63255 11.3735 17.6168 11.4155L19.0278 11.4229C19.6428 16.1155 23.4698 19.751 28.103 19.7753L39.949 19.8377L39.9636 17.0695L28.1175 17.0072C24.49 16.9881 21.5527 13.8695 21.5728 10.0522C21.5929 6.23494 24.5628 3.14739 28.1904 3.16648L36.2852 3.20908Z" fill="#F0F0F0"/>
</svg>
