<svg width="61" height="64" viewBox="0 0 61 64" fill="none" xmlns="http://www.w3.org/2000/svg">
<path d="M25.2615 2.87182H5.02331V0H25.2615C27.3231 0 29.2654 1.13724 30.4576 3.04126V3.047L46.547 28.7182H43.4303L33.7116 13.2075L14.0937 28.7182H9.65767L32.2397 10.8612L28.3832 4.70691C27.6714 3.55818 26.5046 2.87182 25.2615 2.87182ZM43.1557 10.0514C43.1557 6.094 46.0055 2.87182 49.5111 2.87182C53.0168 2.87182 55.8665 6.094 55.8665 10.0514C55.8665 14.0087 53.0168 17.2309 49.5111 17.2309C46.0055 17.2309 43.1557 14.0087 43.1557 10.0514ZM45.6979 10.0514C45.6979 12.4264 47.4088 14.3591 49.5111 14.3591C51.6135 14.3591 53.3244 12.4264 53.3244 10.0514C53.3244 7.67637 51.6135 5.74364 49.5111 5.74364C47.4088 5.74364 45.6979 7.67637 45.6979 10.0514ZM12.6498 40.0188C14.3861 43.5511 17.7239 45.9491 21.5474 45.9491C25.3708 45.9491 28.7086 43.554 30.4449 40.0188C32.1812 43.5511 35.5191 45.9491 39.3425 45.9491C43.1659 45.9491 46.5037 43.554 48.24 40.0188C49.9763 43.5511 53.3142 45.9491 57.1376 45.9491C58.4366 45.9491 59.7026 45.6763 60.9 45.1364L59.9569 42.4684C59.0595 42.8734 58.1113 43.0773 57.1376 43.0773C52.9329 43.0773 49.5111 39.2118 49.5111 34.4618H46.969C46.969 39.2118 43.5472 43.0773 39.3425 43.0773C35.1377 43.0773 31.716 39.2118 31.716 34.4618H29.1738C29.1738 39.2118 25.7521 43.0773 21.5474 43.0773C17.3426 43.0773 13.9209 39.2118 13.9209 34.4618H11.3787C11.3787 39.2118 7.95696 43.0773 3.75223 43.0773C2.78112 43.0773 1.83798 42.8762 0.945684 42.4771L0.0127108 45.1479C1.20244 45.682 2.46081 45.9491 3.75223 45.9491C7.57564 45.9491 10.9135 43.554 12.6498 40.0188ZM57.1376 60.3082C52.9329 60.3082 49.5111 56.4427 49.5111 51.6927H46.969C46.969 56.4427 43.5472 60.3082 39.3425 60.3082C35.1377 60.3082 31.716 56.4427 31.716 51.6927H29.1738C29.1738 56.4427 25.7521 60.3082 21.5474 60.3082C17.3426 60.3082 13.9209 56.4427 13.9209 51.6927H11.3787C11.3787 56.4427 7.95696 60.3082 3.75223 60.3082C2.77858 60.3082 1.83036 60.1043 0.938057 59.7022L0 62.373C1.19482 62.91 2.45827 63.18 3.75477 63.18C7.57818 63.18 10.916 60.7849 12.6523 57.2497C14.3886 60.782 17.7265 63.18 21.5499 63.18C25.3733 63.18 28.7112 60.7849 30.4475 57.2497C32.1838 60.782 35.5216 63.18 39.345 63.18C43.1684 63.18 46.5063 60.7849 48.2426 57.2497C49.9789 60.782 53.3167 63.18 57.1401 63.18C58.4366 63.18 59.7001 62.9072 60.8949 62.373L59.9569 59.7022C59.062 60.1043 58.1138 60.3082 57.1427 60.3082H57.1376Z" fill="white"/>
</svg>
